<mxfile host="app.diagrams.net" modified="2023-04-30T20:49:11.353Z" agent="Mozilla/5.0 (Windows NT 10.0; Win64; x64) AppleWebKit/537.36 (KHTML, like Gecko) Chrome/112.0.0.0 Safari/537.36" etag="SAC2Oo11x_HYoOIvNa9G" version="21.2.3" type="github">
  <diagram id="C5RBs43oDa-KdzZeNtuy" name="Page-1">
    <mxGraphModel dx="794" dy="405" grid="1" gridSize="10" guides="1" tooltips="1" connect="1" arrows="1" fold="1" page="1" pageScale="1" pageWidth="827" pageHeight="1169" math="0" shadow="0">
      <root>
        <mxCell id="WIyWlLk6GJQsqaUBKTNV-0" />
        <mxCell id="WIyWlLk6GJQsqaUBKTNV-1" parent="WIyWlLk6GJQsqaUBKTNV-0" />
        <mxCell id="WIyWlLk6GJQsqaUBKTNV-2" value="" style="rounded=0;html=1;jettySize=auto;orthogonalLoop=1;fontSize=11;endArrow=block;endFill=0;endSize=8;strokeWidth=1;shadow=0;labelBackgroundColor=none;edgeStyle=orthogonalEdgeStyle;" parent="WIyWlLk6GJQsqaUBKTNV-1" source="WIyWlLk6GJQsqaUBKTNV-3" target="WIyWlLk6GJQsqaUBKTNV-6" edge="1">
          <mxGeometry relative="1" as="geometry" />
        </mxCell>
        <mxCell id="WIyWlLk6GJQsqaUBKTNV-3" value="Login Credentials" style="rounded=1;whiteSpace=wrap;html=1;fontSize=12;glass=0;strokeWidth=1;shadow=0;" parent="WIyWlLk6GJQsqaUBKTNV-1" vertex="1">
          <mxGeometry x="360" y="134.06" width="120" height="40" as="geometry" />
        </mxCell>
        <mxCell id="ljOOy-x7PHQWQbAAuXdc-39" value="" style="edgeStyle=orthogonalEdgeStyle;rounded=0;orthogonalLoop=1;jettySize=auto;html=1;entryX=0;entryY=0.5;entryDx=0;entryDy=0;" edge="1" parent="WIyWlLk6GJQsqaUBKTNV-1" source="WIyWlLk6GJQsqaUBKTNV-6" target="WIyWlLk6GJQsqaUBKTNV-7">
          <mxGeometry relative="1" as="geometry" />
        </mxCell>
        <mxCell id="ljOOy-x7PHQWQbAAuXdc-40" value="" style="edgeStyle=orthogonalEdgeStyle;rounded=0;orthogonalLoop=1;jettySize=auto;html=1;" edge="1" parent="WIyWlLk6GJQsqaUBKTNV-1" source="WIyWlLk6GJQsqaUBKTNV-6" target="ljOOy-x7PHQWQbAAuXdc-12">
          <mxGeometry relative="1" as="geometry" />
        </mxCell>
        <mxCell id="WIyWlLk6GJQsqaUBKTNV-6" value="SSN" style="rhombus;whiteSpace=wrap;html=1;shadow=0;fontFamily=Helvetica;fontSize=12;align=center;strokeWidth=1;spacing=6;spacingTop=-4;" parent="WIyWlLk6GJQsqaUBKTNV-1" vertex="1">
          <mxGeometry x="365" y="221.09" width="110" height="85.94" as="geometry" />
        </mxCell>
        <mxCell id="WIyWlLk6GJQsqaUBKTNV-7" value="Doctor" style="rounded=1;whiteSpace=wrap;html=1;fontSize=12;glass=0;strokeWidth=1;shadow=0;" parent="WIyWlLk6GJQsqaUBKTNV-1" vertex="1">
          <mxGeometry x="520" y="244.06" width="120" height="40" as="geometry" />
        </mxCell>
        <mxCell id="ljOOy-x7PHQWQbAAuXdc-1" value="login_Password" style="ellipse;whiteSpace=wrap;html=1;" vertex="1" parent="WIyWlLk6GJQsqaUBKTNV-1">
          <mxGeometry x="310" y="60" width="90" height="50" as="geometry" />
        </mxCell>
        <mxCell id="ljOOy-x7PHQWQbAAuXdc-2" value="login_ID" style="ellipse;whiteSpace=wrap;html=1;" vertex="1" parent="WIyWlLk6GJQsqaUBKTNV-1">
          <mxGeometry x="450" y="70" width="80" height="50" as="geometry" />
        </mxCell>
        <mxCell id="ljOOy-x7PHQWQbAAuXdc-7" value="" style="endArrow=classic;html=1;rounded=0;entryX=0.333;entryY=0.025;entryDx=0;entryDy=0;entryPerimeter=0;" edge="1" parent="WIyWlLk6GJQsqaUBKTNV-1" target="WIyWlLk6GJQsqaUBKTNV-3">
          <mxGeometry width="50" height="50" relative="1" as="geometry">
            <mxPoint x="369.5820501246093" y="110.0002649209635" as="sourcePoint" />
            <mxPoint x="380" y="144.06" as="targetPoint" />
          </mxGeometry>
        </mxCell>
        <mxCell id="ljOOy-x7PHQWQbAAuXdc-11" value="" style="endArrow=classic;html=1;rounded=0;entryX=0.75;entryY=0;entryDx=0;entryDy=0;exitX=0;exitY=1;exitDx=0;exitDy=0;" edge="1" parent="WIyWlLk6GJQsqaUBKTNV-1" target="WIyWlLk6GJQsqaUBKTNV-3">
          <mxGeometry width="50" height="50" relative="1" as="geometry">
            <mxPoint x="461.7157287525381" y="116.73766952966372" as="sourcePoint" />
            <mxPoint x="410" y="145.06" as="targetPoint" />
          </mxGeometry>
        </mxCell>
        <mxCell id="ljOOy-x7PHQWQbAAuXdc-12" value="Patient" style="rounded=1;whiteSpace=wrap;html=1;fontSize=12;glass=0;strokeWidth=1;shadow=0;" vertex="1" parent="WIyWlLk6GJQsqaUBKTNV-1">
          <mxGeometry x="150" y="244.06" width="120" height="40" as="geometry" />
        </mxCell>
        <mxCell id="ljOOy-x7PHQWQbAAuXdc-14" value="doctor_YOE" style="ellipse;whiteSpace=wrap;html=1;" vertex="1" parent="WIyWlLk6GJQsqaUBKTNV-1">
          <mxGeometry x="650" y="304.06" width="80" height="40" as="geometry" />
        </mxCell>
        <mxCell id="ljOOy-x7PHQWQbAAuXdc-15" value="patient_Residence" style="ellipse;whiteSpace=wrap;html=1;" vertex="1" parent="WIyWlLk6GJQsqaUBKTNV-1">
          <mxGeometry x="200" y="310" width="80" height="40" as="geometry" />
        </mxCell>
        <mxCell id="ljOOy-x7PHQWQbAAuXdc-16" value="patient_age" style="ellipse;whiteSpace=wrap;html=1;" vertex="1" parent="WIyWlLk6GJQsqaUBKTNV-1">
          <mxGeometry x="60" y="244.06" width="80" height="40" as="geometry" />
        </mxCell>
        <mxCell id="ljOOy-x7PHQWQbAAuXdc-17" value="patient_email" style="ellipse;whiteSpace=wrap;html=1;" vertex="1" parent="WIyWlLk6GJQsqaUBKTNV-1">
          <mxGeometry x="100" y="310" width="80" height="40" as="geometry" />
        </mxCell>
        <mxCell id="ljOOy-x7PHQWQbAAuXdc-18" value="patient_Address" style="ellipse;whiteSpace=wrap;html=1;" vertex="1" parent="WIyWlLk6GJQsqaUBKTNV-1">
          <mxGeometry x="80" y="190" width="80" height="40" as="geometry" />
        </mxCell>
        <mxCell id="ljOOy-x7PHQWQbAAuXdc-19" value="patient_ID" style="ellipse;whiteSpace=wrap;html=1;" vertex="1" parent="WIyWlLk6GJQsqaUBKTNV-1">
          <mxGeometry x="160" y="174.06" width="80" height="40" as="geometry" />
        </mxCell>
        <mxCell id="ljOOy-x7PHQWQbAAuXdc-20" value="patient_Name" style="ellipse;whiteSpace=wrap;html=1;" vertex="1" parent="WIyWlLk6GJQsqaUBKTNV-1">
          <mxGeometry x="250" y="184.06" width="80" height="40" as="geometry" />
        </mxCell>
        <mxCell id="ljOOy-x7PHQWQbAAuXdc-21" value="" style="edgeStyle=none;orthogonalLoop=1;jettySize=auto;html=1;rounded=0;entryX=0.583;entryY=0.074;entryDx=0;entryDy=0;exitX=0.608;exitY=1.04;exitDx=0;exitDy=0;exitPerimeter=0;entryPerimeter=0;" edge="1" parent="WIyWlLk6GJQsqaUBKTNV-1" source="ljOOy-x7PHQWQbAAuXdc-19" target="ljOOy-x7PHQWQbAAuXdc-12">
          <mxGeometry width="100" relative="1" as="geometry">
            <mxPoint x="200" y="130" as="sourcePoint" />
            <mxPoint x="300" y="130" as="targetPoint" />
            <Array as="points" />
          </mxGeometry>
        </mxCell>
        <mxCell id="ljOOy-x7PHQWQbAAuXdc-22" value="" style="edgeStyle=none;orthogonalLoop=1;jettySize=auto;html=1;rounded=0;exitX=0.983;exitY=0.775;exitDx=0;exitDy=0;exitPerimeter=0;" edge="1" parent="WIyWlLk6GJQsqaUBKTNV-1" source="ljOOy-x7PHQWQbAAuXdc-18">
          <mxGeometry width="100" relative="1" as="geometry">
            <mxPoint x="228" y="225" as="sourcePoint" />
            <mxPoint x="180" y="240" as="targetPoint" />
            <Array as="points" />
          </mxGeometry>
        </mxCell>
        <mxCell id="ljOOy-x7PHQWQbAAuXdc-23" value="" style="edgeStyle=none;orthogonalLoop=1;jettySize=auto;html=1;rounded=0;exitX=0.5;exitY=1;exitDx=0;exitDy=0;" edge="1" parent="WIyWlLk6GJQsqaUBKTNV-1" source="ljOOy-x7PHQWQbAAuXdc-20">
          <mxGeometry width="100" relative="1" as="geometry">
            <mxPoint x="238" y="235" as="sourcePoint" />
            <mxPoint x="260" y="240" as="targetPoint" />
            <Array as="points" />
          </mxGeometry>
        </mxCell>
        <mxCell id="ljOOy-x7PHQWQbAAuXdc-24" value="" style="edgeStyle=none;orthogonalLoop=1;jettySize=auto;html=1;rounded=0;exitX=0.983;exitY=0.757;exitDx=0;exitDy=0;exitPerimeter=0;entryX=0;entryY=0.75;entryDx=0;entryDy=0;" edge="1" parent="WIyWlLk6GJQsqaUBKTNV-1" source="ljOOy-x7PHQWQbAAuXdc-16" target="ljOOy-x7PHQWQbAAuXdc-12">
          <mxGeometry width="100" relative="1" as="geometry">
            <mxPoint x="300" y="234" as="sourcePoint" />
            <mxPoint x="270" y="250" as="targetPoint" />
            <Array as="points" />
          </mxGeometry>
        </mxCell>
        <mxCell id="ljOOy-x7PHQWQbAAuXdc-25" value="" style="edgeStyle=none;orthogonalLoop=1;jettySize=auto;html=1;rounded=0;exitX=0.95;exitY=0.325;exitDx=0;exitDy=0;exitPerimeter=0;" edge="1" parent="WIyWlLk6GJQsqaUBKTNV-1" source="ljOOy-x7PHQWQbAAuXdc-17">
          <mxGeometry width="100" relative="1" as="geometry">
            <mxPoint x="310" y="244" as="sourcePoint" />
            <mxPoint x="190" y="290" as="targetPoint" />
            <Array as="points" />
          </mxGeometry>
        </mxCell>
        <mxCell id="ljOOy-x7PHQWQbAAuXdc-26" value="" style="edgeStyle=none;orthogonalLoop=1;jettySize=auto;html=1;rounded=0;exitX=0.767;exitY=-0.025;exitDx=0;exitDy=0;exitPerimeter=0;entryX=0.878;entryY=1.04;entryDx=0;entryDy=0;entryPerimeter=0;" edge="1" parent="WIyWlLk6GJQsqaUBKTNV-1" source="ljOOy-x7PHQWQbAAuXdc-15" target="ljOOy-x7PHQWQbAAuXdc-12">
          <mxGeometry width="100" relative="1" as="geometry">
            <mxPoint x="320" y="254" as="sourcePoint" />
            <mxPoint x="290" y="270" as="targetPoint" />
            <Array as="points" />
          </mxGeometry>
        </mxCell>
        <mxCell id="ljOOy-x7PHQWQbAAuXdc-28" value="doctor_ID" style="ellipse;whiteSpace=wrap;html=1;" vertex="1" parent="WIyWlLk6GJQsqaUBKTNV-1">
          <mxGeometry x="670" y="230" width="80" height="40" as="geometry" />
        </mxCell>
        <mxCell id="ljOOy-x7PHQWQbAAuXdc-29" value="doctor_Speciality" style="ellipse;whiteSpace=wrap;html=1;" vertex="1" parent="WIyWlLk6GJQsqaUBKTNV-1">
          <mxGeometry x="600" y="184.06" width="80" height="40" as="geometry" />
        </mxCell>
        <mxCell id="ljOOy-x7PHQWQbAAuXdc-30" value="doctor_name" style="ellipse;whiteSpace=wrap;html=1;" vertex="1" parent="WIyWlLk6GJQsqaUBKTNV-1">
          <mxGeometry x="500" y="190" width="80" height="40" as="geometry" />
        </mxCell>
        <mxCell id="ljOOy-x7PHQWQbAAuXdc-31" value="doctor_email" style="ellipse;whiteSpace=wrap;html=1;" vertex="1" parent="WIyWlLk6GJQsqaUBKTNV-1">
          <mxGeometry x="550" y="310" width="80" height="40" as="geometry" />
        </mxCell>
        <mxCell id="ljOOy-x7PHQWQbAAuXdc-32" value="doctor_age" style="ellipse;whiteSpace=wrap;html=1;" vertex="1" parent="WIyWlLk6GJQsqaUBKTNV-1">
          <mxGeometry x="460" y="304.06" width="80" height="40" as="geometry" />
        </mxCell>
        <mxCell id="ljOOy-x7PHQWQbAAuXdc-33" value="" style="edgeStyle=none;orthogonalLoop=1;jettySize=auto;html=1;rounded=0;entryX=0.45;entryY=0.007;entryDx=0;entryDy=0;entryPerimeter=0;exitX=1;exitY=1;exitDx=0;exitDy=0;" edge="1" parent="WIyWlLk6GJQsqaUBKTNV-1" source="ljOOy-x7PHQWQbAAuXdc-30" target="WIyWlLk6GJQsqaUBKTNV-7">
          <mxGeometry width="100" relative="1" as="geometry">
            <mxPoint x="540" y="150" as="sourcePoint" />
            <mxPoint x="640" y="150" as="targetPoint" />
            <Array as="points" />
          </mxGeometry>
        </mxCell>
        <mxCell id="ljOOy-x7PHQWQbAAuXdc-34" value="" style="edgeStyle=none;orthogonalLoop=1;jettySize=auto;html=1;rounded=0;entryX=0.661;entryY=0.007;entryDx=0;entryDy=0;entryPerimeter=0;exitX=0.258;exitY=0.94;exitDx=0;exitDy=0;exitPerimeter=0;" edge="1" parent="WIyWlLk6GJQsqaUBKTNV-1" source="ljOOy-x7PHQWQbAAuXdc-29" target="WIyWlLk6GJQsqaUBKTNV-7">
          <mxGeometry width="100" relative="1" as="geometry">
            <mxPoint x="578" y="234" as="sourcePoint" />
            <mxPoint x="584" y="254" as="targetPoint" />
            <Array as="points" />
          </mxGeometry>
        </mxCell>
        <mxCell id="ljOOy-x7PHQWQbAAuXdc-35" value="" style="edgeStyle=none;orthogonalLoop=1;jettySize=auto;html=1;rounded=0;entryX=1;entryY=0.5;entryDx=0;entryDy=0;exitX=0;exitY=0.5;exitDx=0;exitDy=0;" edge="1" parent="WIyWlLk6GJQsqaUBKTNV-1" source="ljOOy-x7PHQWQbAAuXdc-28" target="WIyWlLk6GJQsqaUBKTNV-7">
          <mxGeometry width="100" relative="1" as="geometry">
            <mxPoint x="588" y="244" as="sourcePoint" />
            <mxPoint x="594" y="264" as="targetPoint" />
            <Array as="points" />
          </mxGeometry>
        </mxCell>
        <mxCell id="ljOOy-x7PHQWQbAAuXdc-36" value="" style="edgeStyle=none;orthogonalLoop=1;jettySize=auto;html=1;rounded=0;exitX=0.5;exitY=0;exitDx=0;exitDy=0;" edge="1" parent="WIyWlLk6GJQsqaUBKTNV-1" source="ljOOy-x7PHQWQbAAuXdc-31">
          <mxGeometry width="100" relative="1" as="geometry">
            <mxPoint x="598" y="254" as="sourcePoint" />
            <mxPoint x="598" y="280" as="targetPoint" />
            <Array as="points" />
          </mxGeometry>
        </mxCell>
        <mxCell id="ljOOy-x7PHQWQbAAuXdc-37" value="" style="edgeStyle=none;orthogonalLoop=1;jettySize=auto;html=1;rounded=0;entryX=0.111;entryY=1.007;entryDx=0;entryDy=0;entryPerimeter=0;exitX=0.767;exitY=0.09;exitDx=0;exitDy=0;exitPerimeter=0;" edge="1" parent="WIyWlLk6GJQsqaUBKTNV-1" source="ljOOy-x7PHQWQbAAuXdc-32" target="WIyWlLk6GJQsqaUBKTNV-7">
          <mxGeometry width="100" relative="1" as="geometry">
            <mxPoint x="608" y="264" as="sourcePoint" />
            <mxPoint x="614" y="284" as="targetPoint" />
            <Array as="points" />
          </mxGeometry>
        </mxCell>
        <mxCell id="ljOOy-x7PHQWQbAAuXdc-38" value="" style="edgeStyle=none;orthogonalLoop=1;jettySize=auto;html=1;rounded=0;entryX=1;entryY=1;entryDx=0;entryDy=0;exitX=0;exitY=0;exitDx=0;exitDy=0;" edge="1" parent="WIyWlLk6GJQsqaUBKTNV-1" source="ljOOy-x7PHQWQbAAuXdc-14" target="WIyWlLk6GJQsqaUBKTNV-7">
          <mxGeometry width="100" relative="1" as="geometry">
            <mxPoint x="618" y="274" as="sourcePoint" />
            <mxPoint x="624" y="294" as="targetPoint" />
            <Array as="points" />
          </mxGeometry>
        </mxCell>
      </root>
    </mxGraphModel>
  </diagram>
</mxfile>
